<svg width="52" height="52" viewBox="0 0 52 52" fill="none" xmlns="http://www.w3.org/2000/svg">
<path d="M9.68494 45.5H42.3149C45.6516 45.5 47.7316 41.8816 46.0633 39L29.7483 10.8116C28.0799 7.92997 23.9199 7.92997 22.2516 10.8116L5.9366 39C4.26827 41.8816 6.34827 45.5 9.68494 45.5ZM25.9999 30.3333C24.8083 30.3333 23.8333 29.3583 23.8333 28.1666V23.8333C23.8333 22.6416 24.8083 21.6666 25.9999 21.6666C27.1916 21.6666 28.1666 22.6416 28.1666 23.8333V28.1666C28.1666 29.3583 27.1916 30.3333 25.9999 30.3333ZM28.1666 39H23.8333V34.6666H28.1666V39Z" fill="#FDB022"/>
</svg>
